<?xml version="1.0" standalone="no"?><!DOCTYPE svg PUBLIC "-//W3C//DTD SVG 1.1//EN" "http://www.w3.org/Graphics/SVG/1.1/DTD/svg11.dtd"><svg t="1633291737448" class="icon" viewBox="0 0 1024 1024" version="1.1" xmlns="http://www.w3.org/2000/svg" p-id="2662" xmlns:xlink="http://www.w3.org/1999/xlink" width="200" height="200"><defs><style type="text/css"></style></defs><path d="M533.333333 42.666667a213.418667 213.418667 0 0 1 209.066667 170.666666H896v85.333334h-384V213.333333h142.08A128.042667 128.042667 0 0 0 405.333333 256v42.666667H170.666667V213.333333h153.6a213.418667 213.418667 0 0 1 209.066666-170.666666zM384 426.666667h85.333333v341.333333H384v-341.333333z m344.32-42.666667h81.706667l3.626666 469.333333c0 70.656-57.6 128-128 128h-341.333333c-70.528 0-128-57.216-128-128V384h85.333333v469.333333c0 23.552 19.2 42.666667 42.666667 42.666667h341.333333c23.381333 0 42.666667-19.2 42.666667-42.666667V384zM554.666667 426.666667h85.333333v341.333333h-85.333333v-341.333333z" fill="#525A65" p-id="2663"></path></svg>